<?xml version="1.0" encoding="UTF-8" standalone="no"?>
<!DOCTYPE svg PUBLIC "-//W3C//DTD SVG 1.1//EN" "http://www.w3.org/Graphics/SVG/1.1/DTD/svg11.dtd">
<svg width="100%" height="100%" viewBox="0 0 48 48" version="1.1" xmlns="http://www.w3.org/2000/svg" xmlns:xlink="http://www.w3.org/1999/xlink" xml:space="preserve" xmlns:serif="http://www.serif.com/" style="fill-rule:evenodd;clip-rule:evenodd;stroke-linejoin:round;stroke-miterlimit:2;">
    <g transform="matrix(3.51921,0,0,0.915414,-7.55762,3.58107)">
        <rect x="3" y="7.012" width="11.935" height="34.957" style="fill:rgb(255,0,7);"/>
    </g>
    <g transform="matrix(1,0,0,1.00544,-3.55271e-15,-0.245003)">
        <rect x="9" y="42.016" width="30" height="2.984" style="fill:rgb(255,0,7);"/>
    </g>
    <g transform="matrix(0.713807,0,0,1.03338,6.83178,-1.60242)">
        <rect x="3.038" y="45.097" width="42.028" height="2.903"/>
    </g>
    <g transform="matrix(1,0,0,1.00542,0,2.94994)">
        <rect x="0" y="7.012" width="3" height="5.968"/>
    </g>
    <g transform="matrix(1,0,0,1.00542,45,2.94994)">
        <rect x="0" y="7.012" width="3" height="5.968"/>
    </g>
    <g transform="matrix(6.15846e-17,-1,2.01084,1.23829e-16,-11.1001,10)">
        <rect x="0" y="7.012" width="3" height="5.968"/>
    </g>
    <g transform="matrix(6.15846e-17,-1,2.01084,1.23829e-16,18.8999,10)">
        <rect x="0" y="7.012" width="3" height="5.968"/>
    </g>
    <g transform="matrix(6.14672e-17,-1,1.34056,8.27863e-17,10.5999,10)">
        <rect x="0" y="7.012" width="3" height="5.968"/>
    </g>
    <g transform="matrix(1,0,0,1,12,0)">
        <rect x="3" y="10.012" width="3.007" height="5.968" style="fill:white;"/>
    </g>
    <g transform="matrix(6.17607e-17,-1,3.01626,1.85393e-16,-6.15018,12.9959)">
        <rect x="0" y="7.012" width="3" height="5.968"/>
    </g>
    <g transform="matrix(0.99444,0,0,1.00544,2.95492,-0.245003)">
        <rect x="3.062" y="42.016" width="3.017" height="2.984"/>
    </g>
    <g transform="matrix(1.01727,0,0,1.00544,-3.80987,-0.245003)">
        <rect x="42.083" y="42.016" width="2.949" height="2.984"/>
    </g>
    <g transform="matrix(0.991683,0,0,0.895423,-0.0283168,4.37767)">
        <rect x="3.054" y="12.98" width="3.025" height="29.037"/>
    </g>
    <g transform="matrix(1.00347,0,0,0.895423,-0.247863,4.37767)">
        <rect x="42.102" y="12.98" width="2.99" height="29.037"/>
    </g>
    <g transform="matrix(0.997543,0,0,1.00542,0.00737003,-0.0663231)">
        <rect x="3" y="10.012" width="3.007" height="5.968" style="fill:white;"/>
    </g>
    <g transform="matrix(1,0,0,1,30,0)">
        <rect x="3" y="10.012" width="3.007" height="5.968" style="fill:white;"/>
    </g>
    <g transform="matrix(0.997543,0,0,4.02168,3.00737,-22.2653)">
        <rect x="3" y="10.012" width="3.007" height="5.968" style="fill:white;"/>
    </g>
    <g transform="matrix(0.997543,0,0,4.52439,15.0074,-27.2985)">
        <rect x="3" y="10.012" width="3.007" height="5.968" style="fill:white;"/>
    </g>
    <g transform="matrix(1,0,0,4.51986,21.0074,-27.2261)">
        <rect x="3" y="10.012" width="3.007" height="5.968" style="fill:white;"/>
    </g>
    <g transform="matrix(0.997543,0,0,4.52439,33.0074,-27.2985)">
        <rect x="3" y="10.012" width="3.007" height="5.968" style="fill:white;"/>
    </g>
    <g transform="matrix(0.976218,0,0,0.728916,-0.167251,10.0121)">
        <rect x="20.659" y="0" width="8.195" height="48" style="fill:rgb(5,96,0);"/>
    </g>
    <g transform="matrix(1,0,0,1.42406,0,1.52412)">
        <rect x="20" y="1.016" width="8" height="2.838" style="fill:rgb(5,96,0);"/>
    </g>
    <g transform="matrix(0.98707,0,0,1.69371,0.258594,-6.9342)">
        <rect x="14.935" y="7.041" width="5.065" height="2.955" style="fill:rgb(5,96,0);"/>
    </g>
    <g transform="matrix(0.98707,0,0,1.69371,13.2586,-6.9342)">
        <rect x="14.935" y="7.041" width="5.065" height="2.955" style="fill:rgb(5,96,0);"/>
    </g>
    <g transform="matrix(1,0,0,2.46671,-13,-2.50604)">
        <rect x="20" y="1.016" width="8" height="2.838" style="fill:rgb(5,96,0);"/>
    </g>
    <g transform="matrix(1,0,0,2.46671,13,-2.50604)">
        <rect x="20" y="1.016" width="8" height="2.838" style="fill:rgb(5,96,0);"/>
    </g>
    <g transform="matrix(1.00041,0,0,0.38462,-0.0276338,37.8601)">
        <rect x="6.025" y="15.964" width="35.985" height="2.6" style="fill-opacity:0.51;"/>
    </g>
    <g transform="matrix(1.00041,0,0,1.15386,-0.0276338,-1.41967)">
        <rect x="6.025" y="15.964" width="35.985" height="2.6" style="fill-opacity:0.51;"/>
    </g>
    <g transform="matrix(1.0282,0,0,0.76924,-0.195068,3.72022)">
        <rect x="6.025" y="15.964" width="35.985" height="2.6"/>
    </g>
    <g transform="matrix(0.936944,0,0,0.933506,0.0975354,9.74526)">
        <rect x="22.309" y="25.982" width="3.202" height="3.214" style="fill:white;"/>
    </g>
    <g transform="matrix(0.936944,0,0,0.933506,3.09754,-1.25474)">
        <rect x="22.309" y="25.982" width="3.202" height="3.214" style="fill:white;"/>
    </g>
    <g transform="matrix(0.936944,0,0,0.933506,0.0975354,-13.2547)">
        <rect x="22.309" y="25.982" width="3.202" height="3.214" style="fill:white;"/>
    </g>
    <g transform="matrix(0.936944,0,0,0.933506,12.0975,-24.2547)">
        <rect x="22.309" y="25.982" width="3.202" height="3.214" style="fill:white;"/>
    </g>
    <g transform="matrix(0.936944,0,0,0.933506,-11.9025,-22.2547)">
        <rect x="22.309" y="25.982" width="3.202" height="3.214" style="fill:white;"/>
    </g>
</svg>
