<svg clip-rule="evenodd" fill-rule="evenodd" stroke-linejoin="round" stroke-miterlimit="2" viewBox="0 0 48 48" xmlns="http://www.w3.org/2000/svg"><path d="m3 7.012h11.935v34.957h-11.935z" fill="#ff0007" transform="matrix(3.26784 0 0 .915414 -3.80351 3.58107)"/><path d="m9 42.016h30v2.984h-30z" fill="#ff0007" transform="matrix(1 0 0 1.00544 0 -.245003)"/><path d="m3.038 45.097h42.028v2.903h-42.028z" transform="matrix(.713807 0 0 1.03338 6.83178 -1.60242)"/><path d="m0 7.012h3v5.968h-3z" transform="matrix(1 0 0 1.00542 0 2.94994)"/><path d="m0 7.012h3v5.968h-3z" transform="matrix(1 0 0 1.00542 45 2.94994)"/><path d="m0 7.012h3v5.968h-3z" transform="matrix(0 -1 2.01084 0 -11.1001 10)"/><path d="m0 7.012h3v5.968h-3z" transform="matrix(0 -1 2.01084 0 18.8999 10)"/><path d="m0 7.012h3v5.968h-3z" transform="matrix(0 -1 1.34056 0 10.5999 10)"/><path d="m3 10.012h3.007v5.968h-3.007z" fill="#fff" transform="matrix(.997543 0 0 .50271 12.0074 7.96684)"/><path d="m0 7.012h3v5.968h-3z" transform="matrix(0 -.998626 3.01626 0 -6.15018 12.9959)"/><path d="m3.062 42.016h3.017v2.984h-3.017z" transform="matrix(.99444 0 0 1.00544 2.95492 -.245003)"/><path d="m42.083 42.016h2.949v2.984h-2.949z" transform="matrix(1.01727 0 0 1.00544 -3.80987 -.245003)"/><path d="m3.054 12.98h3.025v29.037h-3.025z" transform="matrix(.991683 0 0 .895423 -.028317 4.37767)"/><path d="m42.102 12.98h2.99v29.037h-2.99z" transform="matrix(1.00347 0 0 .895423 -.247863 4.37767)"/><g fill="#fff"><path d="m3 10.012h3.007v5.968h-3.007z" transform="matrix(.997543 0 0 1.00542 .00737 -.066323)"/><path d="m3 10.012h3.007v5.968h-3.007z" transform="matrix(.997543 0 0 1.00542 30.0074 -.066323)"/><path d="m3 10.012h3.007v5.968h-3.007z" transform="matrix(.997543 0 0 4.02168 3.00737 -22.2653)"/><path d="m3 10.012h3.007v5.968h-3.007z" transform="matrix(.665029 0 0 4.52439 16.0049 -27.2985)"/><path d="m3 10.012h3.007v5.968h-3.007z" transform="matrix(1 0 0 4.51986 21.0074 -27.2261)"/><path d="m3 10.012h3.007v5.968h-3.007z" transform="matrix(.997543 0 0 4.52439 33.0074 -27.2985)"/></g><path d="m20.659 0h8.195v48h-8.195z" fill="#056000" transform="matrix(.976218 0 0 .729167 -.167251 10)"/><path d="m20 1.016h8v2.838h-8z" fill="#056000" transform="matrix(1 0 0 1.40955 0 1.56798)"/><path d="m14.935 7.041h5.065v2.955h-5.065z" fill="#056000" transform="matrix(.98707 0 0 1.6951 .258594 -6.94403)"/><path d="m14.935 7.041h5.065v2.955h-5.065z" fill="#056000" transform="matrix(.98707 0 0 1.6951 13.2586 -6.94403)"/><path d="m20 1.016h8v2.838h-8z" fill="#056000" transform="matrix(1 0 0 2.46671 -13 -2.50604)"/><path d="m20 1.016h8v2.838h-8z" fill="#056000" transform="matrix(1 0 0 2.46671 13 -2.50604)"/><path d="m6.025 15.964h35.985v2.6h-35.985z" fill-opacity=".51" transform="matrix(.833676 0 0 .38462 3.97697 37.8601)"/><path d="m6.025 15.964h35.985v2.6h-35.985z" fill-opacity=".51" transform="matrix(1.00041 0 0 .76924 -.027634 5.72022)"/><path d="m6.025 15.964h35.985v2.6h-35.985z" transform="matrix(1.05627 0 0 .76924 -1.37437 3.72022)"/><path d="m22.309 25.982h3.202v3.214h-3.202z" fill="#fff" transform="matrix(.936944 0 0 .933506 .097535 9.74526)"/><path d="m22.309 25.982h3.202v3.214h-3.202z" fill="#fff" transform="matrix(.936944 0 0 .933506 3.09754 -1.25474)"/><path d="m22.309 25.982h3.202v3.214h-3.202z" fill="#fff" transform="matrix(.935356 0 0 .933506 .13296 -13.2547)"/><path d="m22.309 25.982h3.202v3.214h-3.202z" fill="#fff" transform="matrix(.936944 0 0 .933506 12.0975 -24.2547)"/><path d="m22.309 25.982h3.202v3.214h-3.202z" fill="#fff" transform="matrix(.936944 0 0 .933506 -11.9025 -22.2547)"/></svg>